<?xml version="1.0" encoding="UTF-8" standalone="no"?>
<!-- Generator: Adobe Illustrator 27.5.0, SVG Export Plug-In . SVG Version: 6.00 Build 0)  -->

<svg
   version="1.1"
   x="0px"
   y="0px"
   viewBox="0 0 800 800"
   style="enable-background:new 0 0 800 800;"
   xml:space="preserve"
   id="svg66"
   sodipodi:docname="774179_10.svg"
   inkscape:version="1.4 (86a8ad7, 2024-10-11)"
   xmlns:inkscape="http://www.inkscape.org/namespaces/inkscape"
   xmlns:sodipodi="http://sodipodi.sourceforge.net/DTD/sodipodi-0.dtd"
   xmlns="http://www.w3.org/2000/svg"
   xmlns:svg="http://www.w3.org/2000/svg"><defs
   id="defs66" /><sodipodi:namedview
   id="namedview66"
   pagecolor="#ffffff"
   bordercolor="#000000"
   borderopacity="0.25"
   inkscape:showpageshadow="2"
   inkscape:pageopacity="0.0"
   inkscape:pagecheckerboard="0"
   inkscape:deskcolor="#d1d1d1"
   inkscape:zoom="0.96625"
   inkscape:cx="400"
   inkscape:cy="427.94308"
   inkscape:window-width="1920"
   inkscape:window-height="991"
   inkscape:window-x="-9"
   inkscape:window-y="-9"
   inkscape:window-maximized="1"
   inkscape:current-layer="svg66" />

<g
   id="object"
   transform="translate(-35.187581,15.523933)">
	<g
   id="g66">
		<g
   id="g59">
			<g
   id="g45">
				<path
   style="clip-rule:evenodd;fill:#fbb017;fill-rule:evenodd"
   d="m 194.923,279.805 c 44.917,65.504 243.492,55.751 255.039,52.01 11.538,-3.741 -16.41,-20.206 -22.863,-30 -96.908,-24.625 -160.542,-31.444 -211.146,-76.314 -23.183,-20.555 -42.35,23.212 -21.03,54.304 z"
   id="path45" />
			</g>
			<g
   id="g46">
				<path
   style="clip-rule:evenodd;fill:#009b95;fill-rule:evenodd"
   d="m 181.727,484.93 c 79.272,4.934 193.841,-157.55 198.003,-168.952 4.156,-11.396 -6.972,-18.156 -18.662,-19.102 -79.067,61.205 -142.672,125.798 -209.186,138.05 -30.469,5.614 -7.781,47.663 29.845,50.004 z"
   id="path46" />
			</g>
			<g
   id="g47">
				<path
   style="clip-rule:evenodd;fill:#1f61ad;fill-rule:evenodd"
   d="m 331.097,620.541 c 52.693,-59.429 -4.811,-249.746 -11.233,-260.045 -6.422,-10.291 -15.83,-6.551 -23.771,2.08 -0.449,99.987 8.522,190.742 -22.774,250.699 -14.336,27.466 32.768,35.475 57.778,7.266 z"
   id="path47" />
			</g>
			<g
   id="g48">
				<path
   style="clip-rule:evenodd;fill:#5f439a;fill-rule:evenodd"
   d="M 533.093,586.991 C 518.703,508.88 333.328,437.023 321.259,435.744 c -12.064,-1.275 -16.379,8.756 -14.468,20.327 78.515,61.911 157.026,110.402 185.004,171.977 12.817,28.205 48.13,-3.982 41.298,-41.057 z"
   id="path48" />
			</g>
			<g
   id="g49">
				<path
   style="clip-rule:evenodd;fill:#af3862;fill-rule:evenodd"
   d="m 633.254,407.411 c -70.411,-36.75 -241.163,65.089 -249.602,73.811 -8.433,8.721 -1.663,18.287 8.631,23.904 97.126,-23.752 182.151,-55.756 247.898,-39.895 30.118,7.265 26.495,-40.378 -6.927,-57.82 z"
   id="path49" />
			</g>
			<g
   id="g50">
				<path
   style="clip-rule:evenodd;fill:#ed2f24;fill-rule:evenodd"
   d="m 553.06,219.729 c -72.31,32.859 -97.185,230.111 -95.507,242.132 1.68,12.014 12.836,14.229 23.601,9.576 41.081,-91.16 68.759,-179.525 121.734,-221.569 24.269,-19.26 -15.507,-45.737 -49.828,-30.139 z"
   id="path50" />
			</g>
			<g
   id="g51">
				<path
   style="clip-rule:evenodd;fill:#f47e20;fill-rule:evenodd"
   d="m 356.485,170.466 c -18.625,77.21 121.497,218.253 132.002,224.331 10.502,6.072 22.9,0.196 25.861,-11.152 C 467.803,295.15 411.427,217.387 410.912,149.756 c -0.236,-30.981 -45.587,-15.939 -54.427,20.71 z"
   id="path51" />
			</g>
			<path
   style="clip-rule:evenodd;fill:#fbb017;fill-rule:evenodd"
   d="m 404.424,297.803 c -7.577,26.787 3.97,28.658 8.607,36.906 14.528,18.838 52.765,3.98 58.335,1.682 1.006,-0.355 2.052,-0.728 2.961,-1.055 8.733,-3.132 14.37,-10.482 12.477,-15.751 -1.015,-2.828 -3.97,-4.626 -7.835,-5.214 4.115,-3.495 6.21,-7.925 4.948,-11.438 -1.221,-3.403 -5.246,-5.318 -10.292,-5.416 3.602,-3.378 5.354,-7.474 4.173,-10.762 -1.554,-4.332 -7.646,-6.268 -14.61,-5.085 2.255,-2.74 3.228,-5.768 2.323,-8.284 -1.741,-4.855 -9.672,-6.452 -17.716,-3.563 -3.004,1.076 -5.596,2.628 -7.577,4.399 -11.151,1.515 -30.743,5.718 -35.794,23.581 z"
   id="path52" />
			<path
   style="clip-rule:evenodd;fill:#f47e20;fill-rule:evenodd"
   d="m 488.739,342.438 c -26.988,6.825 -22.84,17.76 -27.667,25.899 -9.056,21.998 22.921,47.693 27.695,51.369 0.81,0.693 1.655,1.412 2.395,2.037 7.077,6 16.259,7.21 19.878,2.936 1.942,-2.292 2.023,-5.752 0.601,-9.391 5.084,1.816 9.967,1.416 12.379,-1.432 2.338,-2.759 1.985,-7.203 -0.451,-11.621 4.727,1.433 9.148,0.903 11.407,-1.762 2.976,-3.513 1.608,-9.756 -2.898,-15.199 3.501,0.587 6.611,-0.085 8.337,-2.126 3.335,-3.934 0.756,-11.603 -5.767,-17.125 -2.434,-2.065 -5.073,-3.534 -7.597,-4.367 -6.884,-8.9 -20.316,-23.769 -38.312,-19.218 z"
   id="path53" />
			<path
   style="clip-rule:evenodd;fill:#ed2f24;fill-rule:evenodd"
   d="m 497.134,428.248 c -22.357,-16.585 -28.202,-6.454 -37.56,-5.045 -22.768,6.9 -22.443,47.92 -22.268,53.943 -0.026,1.065 -0.048,2.175 -0.065,3.143 -0.17,9.277 4.699,17.154 10.299,17.253 3.004,0.056 5.735,-2.07 7.654,-5.475 1.808,5.088 5.206,8.617 8.94,8.684 3.614,0.065 6.833,-3.018 8.715,-7.7 1.88,4.567 5.087,7.657 8.579,7.72 4.605,0.084 8.573,-4.925 9.94,-11.856 1.76,3.081 4.247,5.065 6.921,5.112 5.156,0.094 9.464,-6.754 9.616,-15.3 0.061,-3.189 -0.472,-6.165 -1.422,-8.646 2.537,-10.963 5.558,-30.771 -9.349,-41.833 z"
   id="path54" />
			<path
   style="clip-rule:evenodd;fill:#af3862;fill-rule:evenodd"
   d="m 434.796,496.455 c -3.176,-27.656 -14.565,-24.998 -21.99,-30.864 -20.598,-11.902 -50.317,16.373 -54.595,20.615 -0.796,0.71 -1.621,1.454 -2.337,2.102 -6.889,6.216 -9.309,15.157 -5.555,19.312 2.013,2.23 5.431,2.77 9.228,1.844 -2.477,4.799 -2.73,9.69 -0.228,12.46 2.421,2.685 6.873,2.926 11.576,1.099 -2.048,4.496 -2.112,8.947 0.23,11.541 3.086,3.416 9.454,2.891 15.449,-0.851 -1.045,3.393 -0.796,6.563 0.997,8.546 3.456,3.828 11.4,2.292 17.742,-3.437 2.37,-2.137 4.177,-4.559 5.339,-6.95 9.736,-5.639 26.259,-16.974 24.144,-35.417 z"
   id="path55" />
			<path
   style="clip-rule:evenodd;fill:#5f439a;fill-rule:evenodd"
   d="m 347.079,487.069 c 21.491,-17.694 13.07,-25.811 13.959,-35.231 -1.2,-23.761 -41.086,-33.344 -46.974,-34.63 -1.028,-0.281 -2.1,-0.57 -3.034,-0.82 -8.961,-2.403 -17.782,0.422 -19.229,5.832 -0.779,2.901 0.625,6.065 3.466,8.749 -5.374,0.526 -9.618,2.974 -10.583,6.578 -0.938,3.493 1.278,7.362 5.368,10.317 -4.887,0.722 -8.658,3.087 -9.563,6.464 -1.191,4.446 2.711,9.508 9.109,12.506 -3.416,0.965 -5.941,2.897 -6.632,5.482 -1.336,4.982 4.27,10.815 12.526,13.024 3.082,0.827 6.097,1.029 8.735,0.706 10.025,5.11 28.52,12.821 42.852,1.023 z"
   id="path56" />
			<path
   style="clip-rule:evenodd;fill:#1f61ad;fill-rule:evenodd"
   d="m 300.6,408.699 c 27.717,2.598 27.465,-9.097 34.735,-15.153 15.896,-17.7 -5.644,-52.611 -8.913,-57.673 -0.532,-0.925 -1.087,-1.884 -1.574,-2.721 -4.663,-8.021 -12.911,-12.235 -17.75,-9.416 -2.598,1.508 -3.832,4.744 -3.708,8.647 -4.182,-3.413 -8.918,-4.668 -12.144,-2.792 -3.126,1.817 -4.282,6.124 -3.464,11.103 -3.976,-2.933 -8.318,-3.912 -11.339,-2.155 -3.979,2.314 -4.778,8.655 -2.354,15.292 -3.103,-1.723 -6.257,-2.132 -8.568,-0.785 -4.459,2.592 -4.595,10.681 -0.295,18.066 1.602,2.761 3.598,5.029 5.699,6.659 3.508,10.69 11.193,29.197 29.675,30.928 z"
   id="path57" />
			<g
   id="g58">
				<path
   style="clip-rule:evenodd;fill:#fbb017;fill-rule:evenodd"
   d="m 431.555,301.438 c -27.806,-7.066 -52.861,-12.665 -75.666,-18.118 18.665,13.709 36.593,30.211 45.169,50.911 28.788,0.057 49.827,-1.649 53.36,-2.794 11.538,-3.741 -16.41,-20.206 -22.863,-29.999 z"
   id="path58" />
			</g>
			<path
   style="clip-rule:evenodd;fill:#009b95;fill-rule:evenodd"
   d="m 338.46,328.086 c 19.657,19.71 26.935,10.555 36.399,10.544 23.539,-3.455 29.285,-44.072 30.004,-50.055 0.182,-1.051 0.368,-2.143 0.527,-3.098 1.54,-9.15 -2.11,-17.662 -7.634,-18.588 -2.961,-0.5 -5.978,1.199 -8.379,4.282 -1.036,-5.298 -3.875,-9.292 -7.556,-9.909 -3.566,-0.602 -7.207,1.973 -9.76,6.325 -1.183,-4.795 -3.896,-8.326 -7.342,-8.905 -4.539,-0.764 -9.207,3.603 -11.582,10.256 -1.286,-3.308 -3.452,-5.637 -6.089,-6.078 -5.086,-0.858 -10.361,5.278 -11.773,13.707 -0.532,3.148 -0.447,6.167 0.128,8.762 -4.135,10.467 -10.052,29.611 3.057,42.757 z"
   id="path59" />
		</g>
		<g
   id="g65">
			
				<polyline
   style="clip-rule:evenodd;fill:none;fill-rule:evenodd;stroke:#009b95;stroke-width:23;stroke-linejoin:round;stroke-miterlimit:10"
   points="     221.135,548.013 144.481,450.945 170.147,340.923    "
   id="polyline59" />
			
				<polyline
   style="clip-rule:evenodd;fill:none;fill-rule:evenodd;stroke:#1f61ad;stroke-width:23;stroke-linejoin:round;stroke-miterlimit:10"
   points="     408.685,628.32 284.081,627.725 221.135,548.013    "
   id="polyline60" />
			
				<polyline
   style="clip-rule:evenodd;fill:none;fill-rule:evenodd;stroke:#5f439a;stroke-width:23;stroke-linejoin:round;stroke-miterlimit:10"
   points="     585.371,534.38 509.332,628.802 408.685,628.32    "
   id="polyline61" />
			
				<polyline
   style="clip-rule:evenodd;fill:none;fill-rule:evenodd;stroke:#af3862;stroke-width:23;stroke-linejoin:round;stroke-miterlimit:10"
   points="     625.427,340.522 650.615,453.364 585.371,534.38    "
   id="polyline62" />
			
				<polyline
   style="clip-rule:evenodd;fill:none;fill-rule:evenodd;stroke:#ed2f24;stroke-width:23;stroke-linejoin:round;stroke-miterlimit:10"
   points="     497.621,182.865 601.544,233.525 625.427,340.522    "
   id="polyline63" />
			
				<polyline
   style="clip-rule:evenodd;fill:none;fill-rule:evenodd;stroke:#f47e20;stroke-width:23;stroke-linejoin:round;stroke-miterlimit:10"
   points="     291.649,185.919 399.064,134.821 497.621,182.865    "
   id="polyline64" />
			
				<polyline
   style="clip-rule:evenodd;fill:none;fill-rule:evenodd;stroke:#fbb017;stroke-width:23;stroke-linejoin:round;stroke-miterlimit:10"
   points="     170.147,340.923 195.653,231.584 291.649,185.919    "
   id="polyline65" />
		</g>
	</g>
</g>
</svg>
